<svg width="159" height="27" viewBox="0 0 159 27" fill="none" xmlns="http://www.w3.org/2000/svg">
<path d="M25.89 20.5334L18.1806 9.55359L16.2643 6.82569L14.4538 4.24736L15.8022 2.32689C15.8896 2.20226 15.9868 2.09496 16.0926 2.00392C16.1995 1.9118 16.2643 1.77958 16.2643 1.6376V0.625343V0.4812C16.2643 0.131137 15.8983 -0.107299 15.5863 0.0487667C15.5841 0.0498504 15.5819 0.0509341 15.5798 0.0520179C15.0637 0.311043 14.5952 0.704458 14.2357 1.21709L13.2813 2.57725L12.3269 1.21709C11.9674 0.704458 11.4989 0.311043 10.9828 0.0520179C10.9807 0.0509341 10.9785 0.0498504 10.9763 0.0487667C10.6643 -0.107299 10.2984 0.131137 10.2984 0.4812V0.625343V1.6376C10.2984 1.77958 10.3631 1.91072 10.47 2.00392C10.5758 2.09496 10.673 2.20226 10.7604 2.32689L12.1089 4.24736L10.2984 6.82569L8.38314 9.55359L0.672599 20.5324C0.215926 21.1805 -0.0010756 21.9229 4.00809e-06 22.636C0.00108361 23.593 0.373549 24.5012 1.01699 25.1829C1.33872 25.5232 1.73169 25.8072 2.17973 26.0044C2.62668 26.2027 3.12978 26.3133 3.65879 26.3122H8.38314H18.1806H22.9049C23.4339 26.3122 23.937 26.2017 24.384 26.0044C25.0566 25.7075 25.6007 25.2187 25.9764 24.6313C26.3521 24.0438 26.5626 23.3535 26.5626 22.6349C26.5637 21.9229 26.3478 21.1816 25.89 20.5334ZM13.6829 24.3701C11.2074 24.6182 9.13562 22.5374 9.38285 20.0533C9.56638 18.2141 11.0487 16.7261 12.8808 16.5419C15.3563 16.2937 17.4281 18.3745 17.1808 20.8586C16.9973 22.6989 15.515 24.1869 13.6829 24.3701ZM24.1562 23.8585C24.0018 24.0211 23.8182 24.1533 23.611 24.2443C23.4026 24.3354 23.1705 24.3896 22.9038 24.3896H18.1795H17.5997C18.6459 23.2332 19.2396 21.6552 19.0939 19.9428C18.8521 17.0968 16.5417 14.8143 13.7045 14.6127C10.2962 14.3699 7.44604 17.0848 7.44604 20.4554C7.44604 21.9684 8.02039 23.3491 8.96181 24.3896H8.38206H3.65771C3.39104 24.3896 3.15893 24.3354 2.95057 24.2443C2.63964 24.1067 2.38053 23.878 2.19808 23.593C2.01563 23.3079 1.91414 22.972 1.91522 22.636C1.9163 22.3011 2.00915 21.9673 2.23695 21.64L8.38098 12.8906L10.2973 10.1627L13.2802 5.91531L16.2632 10.1627L18.1795 12.8906L24.3235 21.64C24.5513 21.9662 24.6441 22.3 24.6452 22.636C24.6474 23.0847 24.466 23.5345 24.1562 23.8585Z" fill="#ED692C"/>
<path d="M48.8794 25.5104C47.805 26.1931 46.2136 26.5178 44.5867 26.5178C40.0663 26.5178 37.4314 24.3062 37.4314 19.7905V13.8761H37.0543C35.8447 13.8761 34.8629 12.8948 34.8629 11.6858V9.26082H37.4314V7.96891C37.4314 6.15313 38.9042 4.67871 40.7232 4.67871H43.6096V9.26082H44.8333C46.3844 9.26082 47.6414 10.5172 47.6414 12.0675V13.8761H43.6096V19.7265C43.6096 21.0278 44.3566 21.7414 45.4642 21.7414C46.1472 21.7414 46.8303 21.547 47.3497 21.189L48.8794 25.5104Z" fill="#ED692C"/>
<path d="M63.0575 8.31714V13.8759C62.5049 13.8095 62.1159 13.7787 61.6606 13.7787C59.1561 13.7787 57.4319 15.0469 57.4319 18.1333V26.226H51.2537V12.2474C51.2537 10.2396 52.8831 8.61107 54.8919 8.61107H57.1378V10.7232C58.4067 9.13259 60.4558 8.31714 63.0575 8.31714Z" fill="#ED692C"/>
<path d="M64.909 3.37807C64.909 1.52436 66.4056 0.0949707 68.6824 0.0949707C70.9592 0.0949707 72.4533 1.42718 72.4533 3.28088C72.4533 5.23178 70.9568 6.66118 68.6824 6.66118C66.4079 6.66118 64.909 5.2294 64.909 3.37807ZM65.5921 8.6097H71.7703V22.0194C71.7703 24.3425 69.8872 26.2247 67.5629 26.2247H65.5921V8.6097Z" fill="#ED692C"/>
<path d="M95.5081 17.3856C95.5081 23.0083 91.6376 26.519 86.8587 26.519C84.5511 26.519 82.8269 25.8695 81.6553 24.4709V26.2251H75.7688V6.03815C75.7688 3.8668 77.5286 2.10791 79.701 2.10791H81.947V10.1367C83.1494 8.90168 84.8096 8.31617 86.8563 8.31617C91.6376 8.31617 95.5081 11.796 95.5081 17.3856ZM89.2635 17.3856C89.2635 14.7212 87.6366 13.2254 85.5566 13.2254C83.4767 13.2254 81.8497 14.7212 81.8497 17.3856C81.8497 20.0832 83.4767 21.6121 85.5566 21.6121C87.6366 21.6121 89.2635 20.0832 89.2635 17.3856Z" fill="#ED692C"/>
<path d="M116.284 18.978H103.473C103.992 20.7653 105.522 21.806 107.798 21.806C108.78 21.806 109.572 21.6471 110.296 21.3176C111.368 20.8293 112.632 21.0759 113.448 21.9245L115.115 23.6573C113.424 25.5418 110.953 26.5161 107.604 26.5161C101.329 26.5161 97.2635 22.6475 97.2635 17.3827C97.2635 12.0847 101.393 8.31323 106.954 8.31323C112.158 8.31323 116.384 11.6295 116.384 17.4467C116.382 17.9042 116.317 18.4897 116.284 18.978ZM103.375 15.7281H110.595C110.27 13.8767 108.904 12.7057 106.985 12.7057C105.066 12.7057 103.733 13.8744 103.375 15.7281Z" fill="#ED692C"/>
<path d="M119.242 2.10986H125.42V22.2565C125.42 24.4492 123.641 26.227 121.447 26.227H119.242V2.10986Z" fill="#ED692C"/>
<path d="M128.736 3.37807C128.736 1.52436 130.232 0.0949707 132.509 0.0949707C134.786 0.0949707 136.282 1.42718 136.282 3.28088C136.282 5.23178 134.786 6.66118 132.509 6.66118C130.232 6.6588 128.736 5.2294 128.736 3.37807ZM133.391 8.60969H135.597V26.227H129.419V12.5802C129.419 10.3875 131.197 8.60969 133.391 8.60969Z" fill="#ED692C"/>
<path d="M138.49 17.3866C138.49 12.0886 142.686 8.31714 148.442 8.31714C154.262 8.31714 158.393 12.0886 158.393 17.3866C158.393 22.7177 154.264 26.52 148.442 26.52C142.686 26.52 138.49 22.7177 138.49 17.3866ZM152.148 17.3866C152.148 14.7221 150.555 13.2264 148.442 13.2264C146.359 13.2264 144.735 14.7221 144.735 17.3866C144.735 20.0842 146.362 21.6131 148.442 21.6131C150.555 21.6131 152.148 20.0842 152.148 17.3866Z" fill="#ED692C"/>
</svg>
